<?xml version="1.0" standalone="no"?>
<!DOCTYPE svg PUBLIC "-//W3C//DTD SVG 20010904//EN"
 "http://www.w3.org/TR/2001/REC-SVG-20010904/DTD/svg10.dtd">
<svg version="1.0" xmlns="http://www.w3.org/2000/svg"
 width="816.000000pt" height="816.000000pt" viewBox="0 0 816.000000 816.000000"
 preserveAspectRatio="xMidYMid meet">
<metadata>
Created by potrace 1.14, written by Peter Selinger 2001-2017
</metadata>
<g transform="translate(0.000000,816.000000) scale(0.100000,-0.100000)"
fill="#000000" stroke="none">
<path d="M114 5231 c1 -715 4 -1303 8 -1307 8 -7 406 -9 413 -2 3 3 5 445 5
983 l1 978 -80 134 -80 134 121 -3 122 -3 56 -131 c30 -72 63 -151 73 -175 11
-24 25 -57 32 -74 7 -16 32 -75 55 -130 24 -55 52 -122 65 -150 12 -27 57
-133 100 -235 43 -102 117 -275 164 -385 l86 -200 155 -3 155 -2 69 157 c38
87 80 181 92 208 67 147 114 259 114 271 0 8 3 14 8 14 4 0 13 15 20 33 7 17
18 40 23 49 5 10 9 25 9 33 0 8 5 15 10 15 6 0 9 3 8 8 -2 9 6 27 49 122 19
41 36 80 37 85 1 6 12 30 23 55 18 40 118 265 160 360 38 88 23 80 155 80 110
0 118 -1 109 -17 -5 -10 -41 -70 -79 -133 l-69 -115 0 -982 0 -983 41 -1 c45
-1 327 -1 364 0 l22 1 0 1305 0 1305 -370 0 c-342 0 -370 -1 -379 -18 -5 -9
-52 -118 -104 -242 -52 -124 -136 -322 -186 -440 -50 -118 -91 -220 -91 -226
0 -5 -6 -16 -12 -23 -7 -6 -13 -15 -13 -19 0 -4 -27 -69 -59 -144 -50 -120
-61 -138 -81 -138 -30 0 -33 4 -100 165 -32 77 -77 185 -100 240 -24 55 -73
172 -110 260 -37 88 -75 178 -85 200 -10 22 -37 85 -60 140 -22 55 -55 133
-72 173 l-32 72 -381 0 -381 0 0 -1299z"/>
<path d="M3412 6343 l3 -188 175 -1 c96 -1 178 -2 181 -3 3 0 -77 -83 -178
-183 l-183 -183 0 -935 0 -936 933 0 932 1 0 185 0 185 -713 1 c-392 1 -716 5
-720 8 -11 12 -8 727 3 734 6 4 330 7 720 7 l710 0 0 185 0 185 -559 3 -559 2
-154 -155 c-85 -85 -158 -155 -161 -155 -5 0 -8 1027 -3 1050 1 3 324 5 719 5
l717 0 0 185 0 185 -933 3 -932 2 2 -187z"/>
<path d="M5799 6513 c-3 -52 -4 -330 -1 -343 3 -13 30 -15 183 -15 98 1 179
-2 179 -5 0 -3 -82 -87 -183 -187 l-182 -182 0 -933 1 -933 954 -1 c700 0 967
3 1000 11 131 34 238 138 274 265 14 48 15 177 13 1050 -2 547 -6 1004 -9
1016 -28 93 -121 197 -218 243 l-55 26 -977 3 c-931 2 -978 2 -979 -15z m1811
-393 c4 -266 0 -1823 -4 -1827 -3 -3 -244 -6 -535 -6 l-529 0 -156 -157 c-86
-86 -157 -154 -157 -151 -3 14 -5 2157 -2 2166 2 7 231 10 693 10 l690 0 0
-35z"/>
<path d="M299 3392 c-62 -30 -104 -71 -130 -127 -17 -37 -18 -72 -18 -450 0
-393 1 -412 21 -453 25 -53 85 -105 138 -121 28 -8 188 -12 562 -12 288 0 548
0 578 0 55 1 55 1 90 54 19 28 37 57 39 62 2 6 7 12 11 15 3 3 46 64 95 135
115 168 138 200 152 202 10 2 93 -98 93 -113 0 -3 14 -23 30 -44 17 -21 30
-42 30 -48 0 -6 4 -12 8 -14 5 -1 33 -39 62 -83 29 -44 57 -81 62 -83 4 -2 8
-9 8 -15 1 -7 11 -25 24 -40 l23 -29 137 1 c75 1 136 -2 137 -6 0 -5 1 -164 1
-355 l1 -348 119 0 118 0 0 355 0 354 373 0 c204 0 382 2 394 5 52 11 118 65
150 122 23 42 26 102 26 479 0 358 -1 383 -20 425 -11 25 -36 61 -56 81 -64
64 -82 67 -408 68 l-291 0 -84 -84 -84 -85 0 85 0 84 -118 0 -119 -1 -1 -546
c0 -301 -1 -562 -1 -581 -1 -31 -11 -20 -157 170 -86 112 -165 215 -175 229
-11 14 -44 58 -74 98 l-55 73 78 97 c43 53 109 138 147 187 38 50 72 92 75 95
4 4 103 128 133 168 8 10 -20 12 -136 11 l-146 -1 -128 -192 c-70 -105 -130
-195 -132 -201 -14 -35 -53 -32 -76 8 -10 17 -22 34 -25 37 -4 3 -18 21 -31
41 -13 20 -67 98 -119 173 l-95 136 -137 -1 c-76 -1 -138 -5 -138 -8 0 -4 15
-25 33 -47 18 -21 61 -77 97 -124 35 -47 67 -87 70 -90 13 -11 212 -274 216
-285 4 -10 -147 -225 -190 -271 -6 -6 -18 -22 -26 -34 -8 -13 -26 -37 -41 -54
-14 -17 -39 -51 -57 -75 -30 -43 -32 -44 -32 -18 l0 27 -469 0 c-366 0 -470 3
-473 13 -3 10 -2 676 1 742 1 20 6 21 353 20 l352 0 1 -135 c1 -74 -1 -142 -3
-151 -3 -14 -31 -16 -236 -16 l-233 0 -102 -102 -101 -101 338 0 337 0 118
118 118 118 -2 145 c-1 164 -15 212 -79 266 -73 61 -69 61 -512 61 -356 0
-408 -2 -439 -16z m3096 -574 l1 -388 -271 0 -272 0 -71 -74 c-39 -41 -76 -77
-81 -81 -8 -4 -11 137 -11 462 l0 468 353 0 352 0 0 -387z"/>
<path d="M3828 3397 c-4 -10 -3 -1135 1 -1162 2 -16 225 -10 229 7 1 7 3 227
5 488 l2 475 233 0 c148 0 232 -3 233 -10 0 -5 1 -66 2 -135 l2 -125 115 0
115 0 -1 145 c0 80 -3 152 -5 160 -21 65 -73 120 -140 148 -40 17 -70 20 -218
21 l-171 0 -85 -85 -85 -85 0 85 0 85 -114 0 c-78 -1 -116 -4 -118 -12z"/>
<path d="M5019 3396 c-79 -28 -141 -97 -155 -173 -12 -63 -8 -783 5 -829 16
-59 59 -110 117 -139 l50 -25 500 -1 499 -1 2 101 1 101 -472 0 -472 0 1 378
c0 207 3 382 7 387 8 13 682 15 694 3 8 -9 8 -274 0 -287 -3 -4 -109 -8 -237
-8 l-231 0 -94 -94 c-51 -52 -94 -97 -94 -101 0 -5 149 -8 331 -8 l331 0 118
118 118 117 -2 150 c-1 102 -6 158 -15 175 -27 50 -63 91 -104 118 l-42 27
-410 2 c-307 1 -419 -2 -446 -11z"/>
<path d="M6231 3394 c-76 -32 -130 -92 -146 -164 -13 -55 -12 -270 1 -322 16
-63 65 -123 123 -150 43 -21 60 -22 303 -23 142 -1 261 -4 265 -9 9 -8 12
-272 3 -286 -4 -6 -145 -11 -355 -12 l-349 -3 -1 -93 c0 -52 3 -96 7 -98 12
-8 733 -7 760 1 72 20 128 68 157 135 18 42 21 69 22 204 0 179 -7 217 -57
274 -70 83 -83 86 -379 88 -143 1 -263 2 -266 3 -7 1 -9 239 -2 256 2 7 99 11
283 10 l280 0 100 97 c55 54 100 99 100 102 0 3 -184 5 -409 4 -318 -1 -416
-4 -440 -14z"/>
<path d="M7246 3385 c-48 -23 -85 -59 -114 -110 -14 -24 -17 -62 -19 -196 -3
-184 5 -215 66 -276 64 -64 80 -67 366 -69 143 -1 263 -3 266 -3 3 -1 6 -68 6
-151 l0 -150 -354 0 -353 0 0 -100 0 -100 43 0 c23 -1 193 -1 378 -1 288 0
342 2 375 16 48 20 88 57 121 113 24 40 25 51 27 204 2 189 -9 236 -70 300
-37 38 -65 55 -109 66 -11 3 -134 5 -272 6 -163 0 -253 4 -254 11 -4 38 -4
247 1 253 3 5 131 8 285 8 l281 -1 97 96 c53 53 97 99 97 102 0 3 -184 5 -408
5 -403 0 -409 -1 -456 -23z"/>
</g>
</svg>
