<svg width="51" height="32" viewBox="0 0 51 32" fill="none" xmlns="http://www.w3.org/2000/svg">
<path d="M17.0586 17.0052H14.3895V4.72706L15.3904 3.05883H13.889L9.78514 12.3676H7.84999L3.8796 3.05883H2.37819L3.37913 4.72706V17.0052H0.709961V0.689941H5.4811L8.7842 8.49726H9.11784L12.4209 0.689941H17.0586V17.0052Z" fill="#0386FF"/>
<path d="M32.9832 17.0386H21.3056V5.36099L23.6411 3.02546H21.3056V0.689941H32.9832V3.02546H23.9748V9.69839L25.9767 7.69651H32.9832V10.032H23.9748V14.7031H32.9832V17.0386Z" fill="#0386FF"/>
<path d="M50.245 14.7031C50.245 15.3259 50.0115 15.8708 49.5444 16.3379C49.0773 16.8051 48.5323 17.0386 47.9095 17.0386H36.2319V5.36099L38.5674 3.02546H36.2319V0.689941H47.9095C48.5323 0.689941 49.0773 0.923494 49.5444 1.3906C50.0115 1.8577 50.245 2.40266 50.245 3.02546V14.7031ZM47.5759 14.7031V3.02546H38.9011V16.705L40.9029 14.7031H47.5759Z" fill="#0386FF"/>
<path d="M8.31381 27.575H2.41354C2.00614 27.575 1.65494 27.4346 1.35992 27.1536C1.07896 26.8586 0.938477 26.5074 0.938477 26.1V21.6748C0.938477 21.2674 1.07896 20.9232 1.35992 20.6422C1.65494 20.3472 2.00614 20.1997 2.41354 20.1997H6.83875C7.24614 20.1997 7.59033 20.3472 7.87129 20.6422C8.16631 20.9232 8.31381 21.2674 8.31381 21.6748V23.1498L6.83875 24.6249H2.62427L3.88861 23.3606H6.83875V21.4641H2.41354V26.3107H8.31381V27.575Z" fill="#FF6D03"/>
<path d="M15.4074 27.575H13.5951L11.5933 24.6671H11.3825L9.38066 27.575H7.61058L10.5396 23.6977L7.8213 20.1997H9.59138L11.4247 22.8127H11.6354L13.3844 20.1997H15.1966L12.4362 23.6977L15.4074 27.575Z" fill="#FF6D03"/>
<path d="M22.705 26.1C22.705 26.5074 22.5575 26.8586 22.2625 27.1536C21.9816 27.4346 21.6374 27.575 21.23 27.575H16.8048V32.0002H15.3297V20.1997H16.8048V21.2533L17.8584 20.1997H21.23C21.6374 20.1997 21.9816 20.3472 22.2625 20.6422C22.5575 20.9232 22.705 21.2674 22.705 21.6748V26.1ZM21.23 26.3107V21.4641H16.8048V27.3643L17.8584 26.3107H21.23Z" fill="#FF6D03"/>
<path d="M29.8044 23.1498H28.3293V21.4641H25.3792V27.575H23.9041V20.1997H25.3792V21.2533L26.4328 20.1997H28.3293C28.7367 20.1997 29.0809 20.3472 29.3618 20.6422C29.6568 20.9232 29.8044 21.2674 29.8044 21.6748V23.1498Z" fill="#FF6D03"/>
<path d="M37.7342 27.575H31.8339C31.4265 27.575 31.0753 27.4346 30.7803 27.1536C30.4994 26.8586 30.3589 26.5074 30.3589 26.1V21.6748C30.3589 21.2674 30.4994 20.9232 30.7803 20.6422C31.0753 20.3472 31.4265 20.1997 31.8339 20.1997H36.2591C36.6665 20.1997 37.0107 20.3472 37.2917 20.6422C37.5867 20.9232 37.7342 21.2674 37.7342 21.6748V23.1498L36.2591 24.6249H32.0447L33.309 23.3606H36.2591V21.4641H31.8339V26.3107H37.7342V27.575Z" fill="#FF6D03"/>
<path d="M44.301 20.1997L43.0155 21.4641H39.4543V23.1498H42.4044C42.8118 23.1498 43.156 23.2973 43.437 23.5924C43.732 23.8733 43.8795 24.2175 43.8795 24.6249V26.1C43.8795 26.5074 43.732 26.8586 43.437 27.1536C43.156 27.4346 42.8118 27.575 42.4044 27.575H37.9792V26.3107H42.4044V24.4142H39.4543C39.0469 24.4142 38.6957 24.2737 38.4007 23.9927C38.1197 23.6977 37.9792 23.3465 37.9792 22.9391V21.6748C37.9792 21.2674 38.1197 20.9232 38.4007 20.6422C38.6957 20.3472 39.0469 20.1997 39.4543 20.1997H44.301Z" fill="#FF6D03"/>
<path d="M50.7557 20.1997L49.4703 21.4641H45.9091V23.1498H48.8592C49.2666 23.1498 49.6108 23.2973 49.8918 23.5924C50.1868 23.8733 50.3343 24.2175 50.3343 24.6249V26.1C50.3343 26.5074 50.1868 26.8586 49.8918 27.1536C49.6108 27.4346 49.2666 27.575 48.8592 27.575H44.434V26.3107H48.8592V24.4142H45.9091C45.5017 24.4142 45.1505 24.2737 44.8555 23.9927C44.5745 23.6977 44.434 23.3465 44.434 22.9391V21.6748C44.434 21.2674 44.5745 20.9232 44.8555 20.6422C45.1505 20.3472 45.5017 20.1997 45.9091 20.1997H50.7557Z" fill="#FF6D03"/>
</svg>
